# xmcd
#
# Track frame offsets: 
#        150
#        22412
#        60630
#        84170
#        128075
#        185825
#        219282
#        274380
#        318150
#
# Disc length: 4671 seconds
#
# Revision: 1
# Processed by: cddbd v1.5.1PL2 Copyright (c) Steve Scherf et al.
# Submitted via: ExactAudioCopy v0.90b4
#
DISCID=80123d09
DTITLE=E. Clapton, J .Vaughan, R. Cray, B. Guy - Stevie Ray Vaughan Tr
DTITLE=ibute (Day After)
DYEAR=1995
DGENRE=Blues
TTITLE0=Reconsider Baby
TTITLE1=Third Degree
TTITLE2=Sweet Home Chicago
TTITLE3=I Can't Quit You Baby - Buddy's Blues
TTITLE4=Further On Up The Road - Let Me Love You Baby
TTITLE5=Wee Wee Baby
TTITLE6=Earliy In The Morning
TTITLE7=Can't Judge Mobody
TTITLE8=Instrumental Blues Jam
EXTD=
EXTT0=
EXTT1=
EXTT2=
EXTT3=
EXTT4=
EXTT5=
EXTT6=
EXTT7=
EXTT8=
PLAYORDER=
